<svg width="100" height="120" viewBox="0 0 100 120" fill="none" xmlns="http://www.w3.org/2000/svg">
<path d="M14.2979 95.2941C14.3002 91.7647 14.2979 81.1765 14.2979 81.1765C14.2979 77.278 11.1023 74.1176 7.15741 74.1176C3.21257 74.1176 0.0123841 77.278 0.012384 81.1765C0.0125188 84.7059 0.00956953 91.7647 0.012384 95.2941C0.0123839 99.1932 3.21195 102.354 7.15742 102.353C11.1016 102.352 14.2979 99.192 14.2979 95.2941Z" fill="#71B4B7"/>
<path d="M14.2979 60C14.2979 63.8979 11.1016 67.0576 7.15742 67.0588C3.21195 67.06 0.0123839 63.8991 0.012384 60C0.0123841 56.1015 3.21031 52.9412 7.15515 52.9412C11.1 52.9412 14.2979 56.1015 14.2979 60Z" fill="#71B4B7"/>
<path d="M14.2868 38.8235C14.289 35.2941 14.2868 24.7059 14.2868 24.7059C14.2868 20.8074 11.0911 17.6471 7.14626 17.6471C3.20141 17.6471 0.00122154 20.8074 0.00122144 24.7059C0.00135629 28.2353 -0.00159303 35.2941 0.00122144 38.8235C0.00122134 42.7226 3.20079 45.8836 7.14626 45.8824C11.0905 45.8811 14.2868 42.7214 14.2868 38.8235Z" fill="#71B4B7"/>
<path d="M35.7173 49.4118C35.7173 53.3096 32.5211 56.4694 28.5768 56.4706C24.6314 56.4718 21.4318 53.3109 21.4318 49.4118C21.4318 45.5133 24.6297 42.3529 28.5746 42.3529C32.5194 42.3529 35.7173 45.5133 35.7173 49.4118Z" fill="#71B4B7"/>
<path d="M35.7173 70.5882C35.7173 74.4861 32.5211 77.6458 28.5768 77.6471C24.6314 77.6483 21.4318 74.4873 21.4318 70.5882C21.4318 66.6898 24.6297 63.5294 28.5746 63.5294C32.5194 63.5294 35.7173 66.6898 35.7173 70.5882Z" fill="#71B4B7"/>
<path d="M57.1457 21.1765C57.1479 17.6471 57.1457 7.05882 57.1457 7.05882C57.1457 3.16034 53.95 0 50.0051 0C46.0603 0 42.8601 3.16034 42.8601 7.05882C42.8602 10.5882 42.8573 17.6471 42.8601 21.1765C42.8601 25.0756 46.0597 28.2365 50.0051 28.2353C53.9494 28.2341 57.1457 25.0743 57.1457 21.1765Z" fill="#71B4B7"/>
<path d="M57.1457 56.4706C57.1479 52.9412 57.1457 42.3529 57.1457 42.3529C57.1457 38.4545 53.95 35.2941 50.0051 35.2941C46.0603 35.2941 42.8601 38.4545 42.8601 42.3529C42.8602 45.8824 42.8573 52.9412 42.8601 56.4706C42.8601 60.3697 46.0597 63.5306 50.0051 63.5294C53.9494 63.5282 57.1457 60.3685 57.1457 56.4706Z" fill="#71B4B7"/>
<path d="M57.1457 112.941C57.1479 109.412 57.1457 98.8235 57.1457 98.8235C57.1457 94.925 53.95 91.7647 50.0051 91.7647C46.0603 91.7647 42.8601 94.925 42.8601 98.8235C42.8602 102.353 42.8573 109.412 42.8601 112.941C42.8601 116.84 46.0597 120.001 50.0051 120C53.9494 119.999 57.1457 116.839 57.1457 112.941Z" fill="#71B4B7"/>
<path d="M57.1479 77.6471C57.1479 81.5449 53.9516 84.7047 50.0074 84.7059C46.0619 84.7071 42.8624 81.5462 42.8624 77.6471C42.8624 73.7486 46.0603 70.5882 50.0051 70.5882C53.95 70.5882 57.1479 73.7486 57.1479 77.6471Z" fill="#71B4B7"/>
<path d="M78.5717 52.9412C78.5717 56.839 75.3754 59.9988 71.4312 60C67.4857 60.0012 64.2862 56.8403 64.2862 52.9412C64.2862 49.0427 67.4841 45.8823 71.4289 45.8823C75.3738 45.8823 78.5717 49.0427 78.5717 52.9412Z" fill="#71B4B7"/>
<path d="M100 60C100 63.8979 96.8037 67.0576 92.8595 67.0588C88.914 67.06 85.7145 63.8991 85.7145 60C85.7145 56.1015 88.9124 52.9412 92.8572 52.9412C96.8021 52.9412 100 56.1015 100 60Z" fill="#71B4B7"/>
<path d="M78.5694 31.7647C78.5694 35.6626 75.3731 38.8223 71.4289 38.8235C67.4835 38.8248 64.2839 35.6638 64.2839 31.7647C64.2839 27.8662 67.4818 24.7059 71.4267 24.7059C75.3715 24.7059 78.5694 27.8662 78.5694 31.7647Z" fill="#71B4B7"/>
<path d="M78.5672 88.2353C78.5694 84.7059 78.5672 74.1176 78.5672 74.1176C78.5672 70.2192 75.3715 67.0588 71.4267 67.0588C67.4818 67.0588 64.2816 70.2192 64.2816 74.1176C64.2818 77.647 64.2788 84.7059 64.2816 88.2353C64.2816 92.1344 67.4812 95.2953 71.4267 95.2941C75.3709 95.2929 78.5672 92.1332 78.5672 88.2353Z" fill="#71B4B7"/>
</svg>
