<svg width="100" height="100" viewBox="0 0 100 100" fill="none" xmlns="http://www.w3.org/2000/svg">
<g clip-path="url(#clip0_282_15)">
<rect x="8" y="17" width="12" height="24" rx="6" fill="white"/>
<rect x="8" y="44" width="12" height="12" rx="6" fill="white"/>
<rect x="8" y="59" width="12" height="24" rx="6" fill="white"/>
</g>
<g clip-path="url(#clip1_282_15)">
<rect x="26" y="36.5" width="12" height="12" rx="6" fill="white"/>
<rect x="26" y="51.5" width="12" height="12" rx="6" fill="white"/>
</g>
<g clip-path="url(#clip2_282_15)">
<rect x="44" y="3.5" width="12" height="24" rx="6" fill="white"/>
<rect x="44" y="30.5" width="12" height="24" rx="6" fill="white"/>
<rect x="44" y="57.5" width="12" height="12" rx="6" fill="white"/>
<rect x="44" y="72.5" width="12" height="24" rx="6" fill="white"/>
</g>
<g clip-path="url(#clip3_282_15)">
<rect x="62" y="23" width="12" height="12" rx="6" fill="white"/>
<rect x="62" y="38" width="12" height="12" rx="6" fill="white"/>
<rect x="62" y="53" width="12" height="24" rx="6" fill="white"/>
</g>
<g clip-path="url(#clip4_282_15)">
<rect x="80" y="44" width="12" height="12" rx="6" fill="white"/>
</g>
<defs>
<clipPath id="clip0_282_15">
<rect width="12" height="66" fill="white" transform="translate(8 17)"/>
</clipPath>
<clipPath id="clip1_282_15">
<rect width="12" height="27" fill="white" transform="translate(26 36.5)"/>
</clipPath>
<clipPath id="clip2_282_15">
<rect width="12" height="93" fill="white" transform="translate(44 3.5)"/>
</clipPath>
<clipPath id="clip3_282_15">
<rect width="12" height="54" fill="white" transform="translate(62 23)"/>
</clipPath>
<clipPath id="clip4_282_15">
<rect width="12" height="12" fill="white" transform="translate(80 44)"/>
</clipPath>
</defs>
</svg>
