<svg width="107" height="129" viewBox="0 0 107 129" fill="none" xmlns="http://www.w3.org/2000/svg">
<g clip-path="url(#clip0_469_35)">
<rect y="19" width="15" height="30" rx="7.5" fill="white"/>
<rect y="57" width="15" height="15" rx="7.5" fill="white"/>
<rect y="80" width="15" height="30" rx="7.5" fill="white"/>
<rect x="23" y="45.5" width="15" height="15" rx="7.5" fill="white"/>
<rect x="23" y="68.5" width="15" height="15" rx="7.5" fill="white"/>
<g clip-path="url(#clip1_469_35)">
<rect x="46" width="15" height="30" rx="7.5" fill="white"/>
<rect x="46" y="38" width="15" height="30" rx="7.5" fill="white"/>
<rect x="46" y="76" width="15" height="15" rx="7.5" fill="white"/>
<rect x="46" y="99" width="15" height="30" rx="7.5" fill="white"/>
</g>
<rect x="69" y="26.5" width="15" height="15" rx="7.5" fill="white"/>
<rect x="69" y="49.5" width="15" height="15" rx="7.5" fill="white"/>
<rect x="69" y="72.5" width="15" height="30" rx="7.5" fill="white"/>
<rect x="92" y="57" width="15" height="15" rx="7.5" fill="white"/>
</g>
<defs>
<clipPath id="clip0_469_35">
<rect width="107" height="129" fill="white"/>
</clipPath>
<clipPath id="clip1_469_35">
<rect width="15" height="129" fill="white" transform="translate(46)"/>
</clipPath>
</defs>
</svg>
